<?xml version="1.0" encoding="UTF-8" standalone="no"?>
<svg
  xmlns:dc="http://purl.org/dc/elements/1.1/"
  xmlns:cc="http://creativecommons.org/ns#"
  xmlns:rdf="http://www.w3.org/1999/02/22-rdf-syntax-ns#"
  xmlns="http://www.w3.org/2000/svg"
  id="svg16"
  version="1.1"
  fill="none"
  viewBox="0 0 25 25"
  height="25"
  width="25">
  <metadata
    id="metadata22">
    <rdf:RDF>
      <cc:Work
        rdf:about="">
        <dc:format>image/svg+xml</dc:format>
        <dc:type
          rdf:resource="http://purl.org/dc/dcmitype/StillImage"/>
        <dc:title></dc:title>
      </cc:Work>
    </rdf:RDF>
  </metadata>
  <defs
    id="defs20"/>
  <path
    id="rect2"
    d="M 5,0 C 2.2386486,0 0,2.2386486 0,5 v 15 c 0,2.761351 2.2386486,5 5,5 h 15 c 2.761351,0 5,-2.238649 5,-5 V 5 C 25,2.2386486 22.761351,0 20,0 Z m 0,1 h 15 c 2.224649,0 4,1.7753514 4,4 v 15 c 0,2.224649 -1.775351,4 -4,4 H 5 C 2.7753514,24 1,22.224649 1,20 V 5 C 1,2.7753514 2.7753514,1 5,1 Z"
    style="color:#000000;font-style:normal;font-variant:normal;font-weight:normal;font-stretch:normal;font-size:medium;line-height:normal;font-family:sans-serif;font-variant-ligatures:normal;font-variant-position:normal;font-variant-caps:normal;font-variant-numeric:normal;font-variant-alternates:normal;font-feature-settings:normal;text-indent:0;text-align:start;text-decoration:none;text-decoration-line:none;text-decoration-style:solid;text-decoration-color:#000000;letter-spacing:normal;word-spacing:normal;text-transform:none;writing-mode:lr-tb;direction:ltr;text-orientation:mixed;dominant-baseline:auto;baseline-shift:baseline;text-anchor:start;white-space:normal;shape-padding:0;clip-rule:nonzero;display:inline;overflow:visible;visibility:visible;opacity:1;isolation:auto;mix-blend-mode:normal;color-interpolation:sRGB;color-interpolation-filters:linearRGB;solid-color:#000000;solid-opacity:1;vector-effect:none;fill:#000000;fill-opacity:1;fill-rule:nonzero;stroke:none;stroke-width:1;stroke-linecap:butt;stroke-linejoin:miter;stroke-miterlimit:4;stroke-dasharray:none;stroke-dashoffset:0;stroke-opacity:1;color-rendering:auto;image-rendering:auto;shape-rendering:auto;text-rendering:auto;enable-background:accumulate"/>
  <rect
    style="fill:#000000"
    id="rect4"
    fill="#BDBDBD"
    rx="2"
    height="4.36778"
    width="4.36776"
    y="16.3218"
    x="4.3103"/>
  <rect
    style="fill:#000000"
    id="rect6"
    fill="#BDBDBD"
    rx="1.09195"
    height="2.18389"
    width="10.9195"
    y="17.4138"
    x="9.77051"/>
  <rect
    style="fill:#000000"
    id="rect8"
    fill="#BDBDBD"
    rx="2"
    height="4.36778"
    width="4.36776"
    y="4.3103"
    x="4.3103"/>
  <rect
    style="fill:#000000"
    id="rect10"
    fill="#BDBDBD"
    rx="1.09195"
    height="2.18389"
    width="10.9195"
    y="5.40234"
    x="9.77051"/>
  <rect
    style="fill:#000000"
    id="rect12"
    fill="#BDBDBD"
    rx="2"
    height="4.36778"
    width="4.36776"
    y="10.3162"
    x="4.3103"/>
  <rect
    style="fill:#000000"
    id="rect14"
    fill="#BDBDBD"
    rx="1.09195"
    height="2.18389"
    width="10.9195"
    y="11.4081"
    x="9.77051"/>
</svg>
