<?xml version="1.0" encoding="UTF-8" standalone="no"?>
<svg
  xmlns:dc="http://purl.org/dc/elements/1.1/"
  xmlns:cc="http://creativecommons.org/ns#"
  xmlns:rdf="http://www.w3.org/1999/02/22-rdf-syntax-ns#"
  xmlns:sodipodi="http://sodipodi.sourceforge.net/DTD/sodipodi-0.dtd"
  xmlns:inkscape="http://www.inkscape.org/namespaces/inkscape"
  xmlns="http://www.w3.org/2000/svg"
  width="24"
  height="24"
  viewBox="0 0 24 24"
  version="1.1"
  id="svg4"
  sodipodi:docname="github.svg"
  style="fill:none"
  inkscape:version="0.92.4 5da689c313, 2019-01-14">
  <metadata
    id="metadata10">
    <rdf:RDF>
      <cc:Work
        rdf:about="">
        <dc:format>image/svg+xml</dc:format>
        <dc:type
          rdf:resource="http://purl.org/dc/dcmitype/StillImage"/>
        <dc:title></dc:title>
      </cc:Work>
    </rdf:RDF>
  </metadata>
  <defs
    id="defs8"/>
  <sodipodi:namedview
    pagecolor="#ffffff"
    bordercolor="#666666"
    borderopacity="1"
    objecttolerance="10"
    gridtolerance="10"
    guidetolerance="10"
    inkscape:pageopacity="0"
    inkscape:pageshadow="2"
    inkscape:window-width="1920"
    inkscape:window-height="1141"
    id="namedview6"
    showgrid="false"
    inkscape:zoom="7.6505129"
    inkscape:cx="21.403352"
    inkscape:cy="28.947736"
    inkscape:window-x="0"
    inkscape:window-y="27"
    inkscape:window-maximized="1"
    inkscape:current-layer="g847"/>
  <g
    style="fill:none"
    id="g847"
    transform="translate(-47.392311,2.1195708)">
    <g
      style="fill:none"
      id="g879"
      transform="matrix(1.3763046,0,0,1.3763046,-92.173236,-2.5520144)">
      <path
        id="path868"
        d="m 107.242,14.207 c 0,0.0938 -0.058,0.1407 -0.176,0.1407 -0.14,0.0234 -0.211,-0.0235 -0.211,-0.1407 0,-0.0703 0.059,-0.1054 0.176,-0.1054 0.141,-0.0235 0.211,0.0117 0.211,0.1054 z m -0.949,0.0352 c -0.141,-0.0234 -0.199,-0.082 -0.176,-0.1758 0.047,-0.0937 0.129,-0.1172 0.246,-0.0703 0.117,0.0234 0.164,0.082 0.141,0.1758 -0.024,0.0937 -0.094,0.1172 -0.211,0.0703 z m 1.406,-0.2461 c 0.117,0 0.176,0.0351 0.176,0.1055 0.023,0.0703 -0.023,0.1289 -0.141,0.1757 -0.117,0.0235 -0.187,-0.0117 -0.211,-0.1054 0,-0.0938 0.059,-0.1524 0.176,-0.1758 z M 110.02,0.53125 c 1.593,0 3.07,0.375 4.429,1.125 1.36,0.75 2.426,1.78125 3.199,3.09375 0.797,1.3125 1.196,2.76562 1.196,4.35938 0,1.94532 -0.551,3.69142 -1.653,5.23832 -1.078,1.5234 -2.496,2.5781 -4.253,3.164 -0.188,0.0469 -0.34,0.0235 -0.458,-0.0703 -0.093,-0.0937 -0.14,-0.2109 -0.14,-0.3516 v -1.125 -1.8281 c 0,-0.75 -0.199,-1.289 -0.598,-1.6172 0.516,-0.0703 0.914,-0.1289 1.196,-0.1757 0.281,-0.0469 0.632,-0.1524 1.054,-0.3165 0.422,-0.164 0.738,-0.375 0.949,-0.6328 0.235,-0.2578 0.434,-0.6211 0.598,-1.0898 0.164,-0.46876 0.246,-1.03126 0.246,-1.68751 0,-0.44531 -0.07,-0.8086 -0.211,-1.08985 -0.14,-0.28125 -0.375,-0.59765 -0.703,-0.94922 0.281,-0.72656 0.258,-1.52343 -0.07,-2.39062 -0.235,-0.07031 -0.551,-0.02344 -0.949,0.14062 -0.399,0.14063 -0.75,0.30469 -1.055,0.49219 l -0.422,0.31641 c -0.727,-0.21094 -1.477,-0.31641 -2.25,-0.31641 -0.75,0 -1.477,0.10547 -2.18,0.31641 -0.117,-0.09375 -0.281,-0.19922 -0.492,-0.31641 -0.211,-0.14062 -0.539,-0.29297 -0.984,-0.45703 -0.422,-0.1875 -0.739,-0.24609 -0.949,-0.17578 -0.352,0.86719 -0.387,1.66406 -0.106,2.39062 -0.539,0.58594 -0.809,1.26563 -0.809,2.03907 0,0.65625 0.083,1.21875 0.247,1.68751 0.164,0.4687 0.351,0.832 0.562,1.0898 0.211,0.2578 0.516,0.4688 0.914,0.6328 0.399,0.1641 0.738,0.2813 1.02,0.3516 0.304,0.0469 0.703,0.0938 1.195,0.1406 -0.305,0.2813 -0.492,0.6797 -0.563,1.1953 -0.234,0.0938 -0.48,0.1641 -0.738,0.211 -0.234,0.0469 -0.539,0 -0.914,-0.1406 -0.375,-0.1407 -0.68,-0.4102 -0.914,-0.8086 -0.141,-0.2578 -0.328,-0.4571 -0.562,-0.5977 -0.211,-0.1641 -0.399,-0.2578 -0.563,-0.2812 l -0.211,-0.0352 c -0.516,0 -0.539,0.1758 -0.07,0.5273 0.164,0.0938 0.328,0.2461 0.492,0.4571 0.164,0.2109 0.281,0.3984 0.352,0.5625 l 0.14,0.2812 c 0.094,0.2813 0.258,0.5156 0.492,0.7032 0.235,0.1874 0.493,0.3046 0.774,0.3515 0.281,0.0469 0.551,0.0703 0.808,0.0703 0.258,0 0.469,-0.0117 0.633,-0.0351 l 0.246,-0.0352 v 1.2656 c 0.024,0.5625 0.035,0.8555 0.035,0.8789 0,0.1407 -0.058,0.2579 -0.175,0.3516 -0.094,0.0938 -0.235,0.1172 -0.422,0.0703 -1.781,-0.5859 -3.223,-1.6406 -4.324,-3.164 -1.102,-1.5469 -1.653,-3.293 -1.653,-5.23832 0,-2.4375 0.821,-4.47657 2.461,-6.11719 1.664,-1.64063 3.715,-2.46094 6.153,-2.46094 z m -5.204,12.12895 c 0.047,-0.0469 0.106,-0.0352 0.176,0.0351 0.07,0.0703 0.082,0.1289 0.035,0.1758 -0.047,0.0469 -0.105,0.0351 -0.175,-0.0352 -0.071,-0.0703 -0.082,-0.1289 -0.036,-0.1757 z m -0.386,-0.2813 c 0.047,-0.0469 0.105,-0.0586 0.175,-0.0351 0.071,0.0468 0.094,0.0937 0.071,0.1406 -0.024,0.0703 -0.071,0.082 -0.141,0.0351 -0.094,-0.0468 -0.129,-0.0937 -0.105,-0.1406 z m 1.16,1.2305 c 0.047,-0.0703 0.117,-0.0586 0.211,0.0351 0.094,0.0938 0.117,0.1758 0.07,0.2461 -0.07,0.0703 -0.152,0.0586 -0.246,-0.0351 -0.094,-0.0938 -0.105,-0.1758 -0.035,-0.2461 z m -0.422,-0.4922 c 0.07,-0.0703 0.141,-0.0469 0.211,0.0703 0.07,0.0937 0.07,0.1641 0,0.2109 -0.07,0.0469 -0.141,0.0235 -0.211,-0.0703 -0.047,-0.1172 -0.047,-0.1875 0,-0.2109 z"
        inkscape:connector-curvature="0"
        style="fill:#232323"
        sodipodi:nodetypes="scscsccccccccccsccscccscscccccsccccccscccccscscccccccccccccccsscccscccscscssccccccccccccccccc"/>
    </g>
  </g>
</svg>
