<?xml version="1.0" encoding="UTF-8" standalone="no"?>
<svg
  xmlns:dc="http://purl.org/dc/elements/1.1/"
  xmlns:cc="http://creativecommons.org/ns#"
  xmlns:rdf="http://www.w3.org/1999/02/22-rdf-syntax-ns#"
  xmlns:sodipodi="http://sodipodi.sourceforge.net/DTD/sodipodi-0.dtd"
  xmlns:inkscape="http://www.inkscape.org/namespaces/inkscape"
  xmlns="http://www.w3.org/2000/svg"
  width="24"
  height="24"
  viewBox="0 0 24 24"
  version="1.1"
  id="svg4"
  sodipodi:docname=".svg"
  style="fill:none"
  inkscape:version="0.92.4 5da689c313, 2019-01-14">
  <metadata
    id="metadata10">
    <rdf:RDF>
      <cc:Work
        rdf:about="">
        <dc:format>image/svg+xml</dc:format>
        <dc:type
          rdf:resource="http://purl.org/dc/dcmitype/StillImage"/>
        <dc:title></dc:title>
      </cc:Work>
    </rdf:RDF>
  </metadata>
  <defs
    id="defs8"/>
  <sodipodi:namedview
    pagecolor="#ffffff"
    bordercolor="#666666"
    borderopacity="1"
    objecttolerance="10"
    gridtolerance="10"
    guidetolerance="10"
    inkscape:pageopacity="0"
    inkscape:pageshadow="2"
    inkscape:window-width="1920"
    inkscape:window-height="1141"
    id="namedview6"
    showgrid="false"
    inkscape:zoom="12.309743"
    inkscape:cx="12.205043"
    inkscape:cy="-8.725922"
    inkscape:window-x="0"
    inkscape:window-y="27"
    inkscape:window-maximized="1"
    inkscape:current-layer="svg4"/>
  <path
    d="M 11.999982,6.081e-5 C 5.374991,6.081e-5 0,5.3750525 0,12.000043 0,18.625099 5.374991,24 11.999982,24 18.624943,24 24,18.625099 24,12.000043 24,5.3750525 18.624943,6.081e-5 11.999982,6.081e-5 Z m 4.281207,8.14060739 c 0.171888,-0.1093659 0.453133,-0.2499891 0.671847,-0.1874899 0.171888,0.046898 0.312509,0.1093967 0.109534,0.2499953 -0.0938,0.062499 -0.234424,0 -0.343776,0.03125 0.140646,0.03125 0.343776,0.093749 0.28124,0.2343781 0.406159,0.234372 -0.12506,0.5156169 -0.390597,0.4843658 0.124907,0.015632 -0.265687,0.2500106 -0.265687,0.2343735 -0.140647,0.078162 -0.328067,0.078162 -0.437578,0.2187595 -0.124906,0.1718728 0.04701,0.4687501 -0.187443,0.4062494 -0.0938,0.2031221 -0.453132,0.093749 -0.609358,0.3124941 0.171935,0.187506 -0.171873,0.453133 -0.343746,0.218757 -0.156241,0.06248 -0.07812,0.234376 -0.234376,0.328111 0.0625,0.09375 0.07814,0.18751 -0.03125,0.250009 0.03125,-0.01566 0.218757,0.140646 0.265626,0.156237 -0.03125,0.07816 -0.09375,0.140662 -0.171873,0.140662 0.07812,0.203122 -0.09375,0.421868 -0.234375,0.546872 -0.156256,0.124999 -0.515619,0.249991 -0.562504,0.281244 -0.281244,0.265624 -0.46875,0.656255 0.03125,0.765629 0.01564,0 0.01564,0.515617 0.03125,0.531249 0.03125,0.18749 0.109372,0.734377 -0.218742,0.531254 -0.156261,-0.07815 -0.250014,-0.515643 -0.296882,-0.687516 -0.04688,-0.18749 -0.0625,-0.18749 -0.187507,-0.374993 -0.203124,0.234372 -0.234375,0.0625 -0.406248,-0.0469 -0.171873,-0.09375 -0.421866,-0.0625 -0.515619,-0.156252 C 12,12.781279 11.828127,12.734405 11.781242,12.46876 c -0.06248,0.124983 0.0625,0.312495 0.04688,0.359368 -0.07814,0.156252 -0.218757,0.124998 -0.343746,0.03125 -0.203124,-0.156237 -0.640623,0.109412 -0.874998,0 0.01563,0 0.07812,0.0625 0.124989,0.09375 -0.04687,0.18751 -0.15624,0.07816 -0.249993,0.140646 -0.109372,0.07816 -0.203124,0.234379 -0.296877,0.312516 0.203124,0.390613 -0.01563,0.765611 0,1.187428 0,0.31251 0.203124,0.859443 0.500001,1.031331 0.140622,0.07812 0.609373,0.109381 0.749995,0.04685 0.218757,-0.09364 0.187506,-0.265535 0.265626,-0.453136 0.07812,-0.203155 0.171873,-0.296797 0.406248,-0.312511 0.671875,-0.03126 0.156256,0.515667 0.07812,0.796912 -0.04687,0.203153 -0.06249,0.437576 -0.09374,0.62502 0.07812,0.03126 0.156241,0.01554 0.234376,0.01554 0,-0.06238 0.04687,-0.140646 0.04687,-0.187445 0.09375,0.156174 0.406248,0.203153 0.500001,0.01557 0.109372,0.187597 0.328129,0.32822 0.35938,0.546932 0.03125,0.218711 0.234375,0.453133 -0.0625,0.453133 -0.218757,0 0.03125,0.437576 0.0625,0.515665 0.171873,0.31251 0.453117,0.437422 0.765612,0.281245 0,0.124906 -0.04687,0.468687 -0.218742,0.499953 -0.156254,0.03127 -0.453133,-0.296797 -0.390631,-0.468688 -0.01562,0.06253 -0.0625,0.109381 -0.109372,0.140646 -0.156263,-0.187515 -0.42189,-0.281161 -0.562512,-0.46876 -0.03125,-0.04682 -0.453117,-0.687397 -0.359363,-0.718665 -0.218758,0.09364 -0.656257,-0.06253 -0.859381,-0.171887 -0.328134,-0.172012 -0.375002,-0.625145 -0.781251,-0.562614 -0.281259,0.04682 -0.359379,0.156179 -0.687507,0.03127 C 9.812486,16.171837 9.6249794,16.015658 9.4062377,15.906301 9.1562293,15.765678 8.7187296,15.625056 8.6249924,15.312547 8.5312388,15.062571 8.5624898,14.765614 8.421868,14.531348 8.328115,14.375016 8.0468556,14.062537 7.8437312,14.062537 c 0.1875065,0 -0.171873,-0.468751 -0.2187419,-0.515622 -0.1718728,-0.203122 -0.7968784,-0.74999 -0.6718745,-1.062505 0.03125,-0.04688 -0.3124951,-0.171871 -0.3749972,-0.18749 0.062505,0.156238 0.078121,0.328113 0.1562403,0.46875 0.078138,0.156238 0.1718885,0.296862 0.2656262,0.453118 0.171873,0.281245 0.4062484,0.625004 0.3749974,0.968753 C 7.1718571,14.250102 7.2343583,13.953165 7.1718571,13.82816 7.062485,13.625038 6.7656089,13.625038 6.6874891,13.406298 c 0.03125,-0.01568 0.046867,-0.01568 0.078122,-0.03125 C 6.781242,13.109421 6.3906112,12.89066 6.4531137,12.70317 6.2343714,12.531298 6.2343714,12.20317 6.0781165,11.984411 5.9374945,11.781288 5.7031193,11.687549 5.4999949,11.546912 5.4218598,11.500043 4.8593718,10.781299 5.0624957,10.734417 4.7499853,10.812549 4.5937454,10.078173 4.6406143,9.8906673 c 0,0 -0.03125,0 -0.03125,-0.015678 C 4.6718654,9.6874835 4.5624964,8.718729 4.8124886,8.7031119 4.6406157,8.7187751 4.5937468,8.2968625 4.6406157,8.2187293 4.6718653,8.1562454 4.906242,8.3906174 4.9218751,8.421867 5.0156147,8.374985 5.109366,8.2499789 5.0781155,8.1406068 5.0312472,8.0156084 4.8593736,7.9062348 4.7499871,7.8124799 4.7031189,7.7812456 4.0781282,7.3749793 4.0624952,7.3906133 4.1249959,7.2812628 4.1093634,7.1718569 4.0156269,7.093736 3.7187496,7.3281126 3.8749899,6.8749949 3.7187496,6.8281113 3.6562488,6.8124481 3.593745,6.7656121 3.531243,6.7031129 4.4374925,5.2656236 5.7031217,4.0624972 7.2031104,3.2343686 c 0.093755,-0.015656 0.2187572,-0.015656 0.3437615,-0.015656 0.2812438,0.03125 0.4374994,0.2656256 0.6406236,0.4062467 0.03125,-0.078093 -0.03125,-0.2031226 -0.078138,-0.281242 C 8.1562398,3.2187148 8.3437331,3.1874624 8.4531191,3.1562115 8.5937408,3.1405867 8.7968653,3.1093432 8.921854,3.1718363 8.8281165,3.0312283 8.7187295,2.9062392 8.6093585,2.7812348 8.5937337,2.7968596 8.5468578,2.8281031 8.5312376,2.8593558 8.3593648,2.7187341 8.0312364,2.9062378 7.8749809,2.9687278 7.7499917,3.0312286 7.640606,3.1093648 7.5156173,3.1562342 c -0.078138,0.03125 -0.1250046,0.03125 -0.1875064,0.015625 0.46875,-0.2499323 0.953118,-0.4686742 1.4687529,-0.6405628 0.093755,0.062501 0.1874907,0.1718886 0.3281126,0.2812595 -0.093738,-0.078138 -0.093738,0.2812439 -0.062485,0.3437462 0.1718728,0.2343755 0.5468701,0.078121 0.7812446,0.078121 -0.01564,0 0.687492,0.093753 0.546871,-0.078121 0.109372,0.1562541 0.109372,0.390632 0.250008,0.5312538 0.140621,-0.1406404 -0.0625,-0.2968783 0.03123,-0.4375002 0.03125,-0.062501 0.312511,-0.1406231 0.406264,-0.187507 0.109373,-0.078114 -0.07813,-0.1874858 -0.125002,-0.2187369 -0.156256,-0.093754 -0.765628,-0.1406214 -0.468751,-0.5000011 0.109372,-0.1250046 0.500002,-0.062501 0.62499,0.015625 0.171889,0.093755 0.35938,0.2656263 0.125005,0.4218812 0.109372,0.015625 0.625006,0.1562562 0.54687,0.3593793 0.04688,-0.093755 0.125005,-0.2343747 0.250009,-0.2343747 0.140621,0.015625 0.171873,0.3437466 0.234375,0.4218651 0.218742,0.3906298 0.593739,-0.3906148 0.656241,-0.3593794 -0.281244,-0.1093707 0.250008,-0.2499929 0.390631,-0.203124 0.109371,0.046883 0.281243,0.4218813 0.07812,0.4062482 0.171873,0.1562541 0.187506,0.500003 -0.124989,0.4843858 C 13.04685,3.6406452 12.796858,3.3438216 12.593733,3.5781762 12.453096,3.7344133 12.390609,3.968793 12.249972,4.1094146 12.03123,4.3281711 11.734353,4.3125371 11.468726,4.2813028 11.578098,4.2969658 11.234351,4.656298 11.2031,4.718788 11.10935,4.8282 11.04686,4.95316 11.015609,5.0781645 c -0.03125,0.1562526 0,0.3281285 -0.07814,0.4843827 0.265626,-0.078147 0.406248,0.4062494 0.296877,0.4218665 0.328128,-0.046882 0.593755,-0.046882 0.906249,0.062499 0.218758,0.078147 0.546871,0.1718743 0.640624,0.4062463 0.0625,-0.093749 0.359379,-0.046882 0.453133,-0.015663 0.18749,0.093733 0.203124,0.296862 0.249992,0.4687502 0.0625,0.2343597 0.265627,0.6249889 0.531253,0.4999844 0.04687,-0.03125 0.390615,-0.18749 0.265626,-0.2812434 -0.124998,-0.1093813 -0.265619,-0.3906293 -0.140615,-0.5468696 0.12499,-0.1718713 0.421866,-0.2187595 0.499986,-0.437499 0.125005,-0.3593796 -0.374997,-0.3125098 -0.374997,-0.5781222 0,-0.1562526 0.203124,-0.2031378 0.187507,-0.3906308 0,-0.1562541 -0.234376,-0.4687516 -0.04688,-0.5781191 0.156254,-0.093749 0.906326,0.062499 1.046948,0.1562372 0.140646,0.093749 0.578044,0.2187549 0.609312,0.3593781 -0.03127,0 -0.04684,0 -0.0781,0 0.124906,0.1093967 0.234266,0.3437441 0.01554,0.4062494 0.140646,-0.03125 0.546934,0.1249984 0.265689,0.2187549 0.09364,-0.046897 0.17189,-0.015678 0.265534,-0.078162 0.109382,-0.062499 0.171887,-0.1718758 0.31251,-0.093733 0.03126,0.015648 0.203155,-0.328127 0.296956,-0.3125098 0.140646,0.015678 0.171887,0.2187548 0.234264,0.3125098 0.06253,0.1406462 0.234423,0.1874899 0.296958,0.3281116 0.10935,0.2656277 0.06253,0.5156383 0.421863,0.6093733 0.109381,0.03125 0.406311,-0.1406462 0.3906,0.093749 0.06253,-0.062499 0.0938,-0.1093966 0.0938,-0.1249984 0.01557,0.218758 0.109381,0.4687502 0.375043,0.4375159 0,0 0,0.296862 -0.03127,0.3437441 -0.0938,0.1406462 -0.328218,0.1093966 -0.468841,0.1874914 -0.04684,0.015679 -0.421866,0.3437641 -0.374888,0.3906308 -0.20316,-0.2343746 -0.531379,-0.2343746 -0.796915,-0.1718738 -0.281243,0.046867 -0.546931,0.078132 -0.812464,0.1874899 -0.125059,0.062499 -0.250131,0.1249984 -0.343776,0.2343782 -0.04701,0.062499 -0.12506,0.3437594 -0.203158,0.3593765 0.156176,-0.03125 0.234423,-0.2031224 0.359334,-0.2968773 z M 13.734346,21.843848 c -0.01563,-0.07827 -0.03124,-0.234422 -0.03124,-0.250132 -0.01564,-0.24998 0.249993,-0.421868 0.23436,-0.656132 -0.171873,-0.047 -0.218742,-0.218867 -0.187491,-0.406311 0.03125,-0.265689 0.265627,-0.453133 0.453117,-0.62502 0.187506,-0.171888 0.234375,-0.531225 0.187506,-0.749933 -0.07812,-0.375046 -0.07812,-0.765643 -0.140621,-1.140689 0.01563,0.0938 0.281244,0.06253 0.328128,0.187602 0.06249,-0.109535 0.09374,-0.250132 0.171873,-0.359489 0.06249,-0.09364 0.171873,-0.124906 0.265626,-0.203157 0.156316,-0.09364 0.484383,-0.453133 0.671827,-0.234266 0.156334,0.187443 -0.234266,0.390601 -0.03126,0.562489 0.06253,-0.12506 0,-0.31251 0.12506,-0.437576 0.249978,-0.281244 0.421866,0.03127 0.671842,0.109351 0.265692,0.07827 0.359336,0.171891 0.562489,0.343779 -0.06253,-0.06253 0.249979,-0.171888 0.281244,-0.187443 0.296954,-0.06253 0.421868,0.109381 0.625021,0.265687 0.218713,0.156176 0.562488,0.265531 0.531223,0.578043 0.156329,0.03127 0.249975,0.07812 0.375041,0.125059 0.12506,0.06238 0.296801,0.03111 0.390602,0.124907 -1.437489,1.515576 -3.343661,2.578172 -5.484352,2.953217 z"
    id="path2"
    inkscape:connector-curvature="0"
    style="fill:#000000;stroke-width:1.55555308"/>
</svg>
