<?xml version="1.0" encoding="UTF-8" standalone="no"?>
<svg
  xmlns:dc="http://purl.org/dc/elements/1.1/"
  xmlns:cc="http://creativecommons.org/ns#"
  xmlns:rdf="http://www.w3.org/1999/02/22-rdf-syntax-ns#"
  xmlns:sodipodi="http://sodipodi.sourceforge.net/DTD/sodipodi-0.dtd"
  xmlns:inkscape="http://www.inkscape.org/namespaces/inkscape"
  xmlns="http://www.w3.org/2000/svg"
  width="24"
  height="24"
  viewBox="0 0 24 24"
  version="1.1"
  id="svg4"
  sodipodi:docname="xing.svg"
  style="fill:none"
  inkscape:version="0.92.4 5da689c313, 2019-01-14">
  <metadata
    id="metadata10">
    <rdf:RDF>
      <cc:Work
        rdf:about="">
        <dc:format>image/svg+xml</dc:format>
        <dc:type
          rdf:resource="http://purl.org/dc/dcmitype/StillImage"/>
        <dc:title></dc:title>
      </cc:Work>
    </rdf:RDF>
  </metadata>
  <defs
    id="defs8"/>
  <sodipodi:namedview
    pagecolor="#ffffff"
    bordercolor="#666666"
    borderopacity="1"
    objecttolerance="10"
    gridtolerance="10"
    guidetolerance="10"
    inkscape:pageopacity="0"
    inkscape:pageshadow="2"
    inkscape:window-width="1920"
    inkscape:window-height="1141"
    id="namedview6"
    showgrid="false"
    inkscape:zoom="7.6505129"
    inkscape:cx="21.403352"
    inkscape:cy="28.947736"
    inkscape:window-x="0"
    inkscape:window-y="27"
    inkscape:window-maximized="1"
    inkscape:current-layer="g847"/>
  <g
    style="fill:none"
    id="g847"
    transform="translate(-47.392311,2.1195708)">
    <path
      id="path836"
      d="m 57.844139,7.4161393 c 0,0 -1.24998,2.2142933 -3.750095,6.6428797 -0.285714,0.428496 -0.607085,0.642896 -0.964267,0.642896 h -3.482056 c -0.214401,0 -0.37501,-0.07146 -0.482134,-0.2144 -0.07147,-0.178591 -0.07147,-0.357029 0,-0.535619 L 52.861892,7.4161393 50.504863,3.3447186 c -0.107123,-0.1785753 -0.107123,-0.3392915 0,-0.4821486 0.107124,-0.1785753 0.267733,-0.2678553 0.482134,-0.2678553 h 3.482057 c 0.392838,0 0.714361,0.2142934 0.964267,0.6428496 z M 69.62974,-1.3695672 61.915607,12.183972 66.790578,21.13041 c 0.107124,0.178591 0.107124,0.339353 0,0.482133 -0.07147,0.178591 -0.2144,0.267886 -0.428648,0.267886 h -3.535695 c -0.392838,0 -0.714209,-0.214248 -0.964267,-0.642896 l -4.928609,-9.053561 c 0.03581,-0.07146 0.321523,-0.589257 0.857143,-1.553539 0.571428,-0.9642823 1.500038,-2.571429 2.785676,-4.8214404 1.28579,-2.285714 2.660724,-4.7142703 4.125105,-7.2856989 0.249904,-0.4285867 0.553599,-0.6428647 0.910628,-0.6428647 h 3.535695 c 0.2144,0 0.357182,0.08928 0.428648,0.2678552 0.107124,0.1428572 0.124952,0.3035734 0.05348,0.4821486 z"
      inkscape:connector-curvature="0"
      style="fill:#232323;stroke-width:1.52380955"
      sodipodi:nodetypes="ccsscccccssccccccsscccccsscc"/>
  </g>
</svg>
