<?xml version="1.0" encoding="UTF-8" standalone="no"?>
<svg
   xmlns:dc="http://purl.org/dc/elements/1.1/"
   xmlns:cc="http://creativecommons.org/ns#"
   xmlns:rdf="http://www.w3.org/1999/02/22-rdf-syntax-ns#"
   xmlns:svg="http://www.w3.org/2000/svg"
   xmlns="http://www.w3.org/2000/svg"
   id="svg18"
   version="1.1"
   fill="none"
   viewBox="0 0 120 109"
   height="109"
   width="120">
  <metadata
     id="metadata24">
    <rdf:RDF>
      <cc:Work
         rdf:about="">
        <dc:format>image/svg+xml</dc:format>
        <dc:type
           rdf:resource="http://purl.org/dc/dcmitype/StillImage" />
        <dc:title></dc:title>
      </cc:Work>
    </rdf:RDF>
  </metadata>
  <defs
     id="defs22" />
  <path
     style="fill:#BD904D;stroke:none"
     id="path2"
     fill="#BD904D"
     d="M109.451 23.5535C111.665 22.4252 114.392 23.3003 115.351 25.593C118.719 33.6434 120.298 42.3497 119.954 51.1056C119.551 61.3636 116.522 71.3467 111.158 80.0999C105.794 88.8531 98.2743 96.0836 89.3173 101.1C80.3602 106.116 70.266 108.75 60 108.75C49.734 108.75 39.6397 106.116 30.6827 101.1C21.7257 96.0835 14.2055 88.8531 8.84159 80.0999C3.47763 71.3467 0.449303 61.3636 0.0462648 51.1056C-0.297753 42.3497 1.28076 33.6434 4.6488 25.593C5.608 23.3003 8.33475 22.4252 10.5491 23.5535C12.7635 24.6818 13.6239 27.3858 12.6951 29.691C10.0087 36.3585 8.75578 43.5355 9.03932 50.7522C9.3819 59.4716 11.956 67.9572 16.5153 75.3974C21.0747 82.8376 27.4668 88.9835 35.0803 93.2473C42.6938 97.511 51.2739 99.75 60 99.75C68.7261 99.75 77.3062 97.511 84.9197 93.2473C92.5331 88.9835 98.9253 82.8376 103.485 75.3974C108.044 67.9572 110.618 59.4716 110.961 50.7522C111.244 43.5356 109.991 36.3586 107.305 29.691C106.376 27.3858 107.236 24.6818 109.451 23.5535Z" />
  <path
     style="fill:#BD904D;stroke:none"
     id="path4"
     fill="#BD904D"
     d="M60 86.25C80.7107 86.25 97.5 69.4607 97.5 48.75C97.5 28.0393 80.7107 11.25 60 11.25C39.2893 11.25 22.5 28.0393 22.5 48.75C22.5 69.4607 39.2893 86.25 60 86.25ZM60 93.75C84.8528 93.75 105 73.6028 105 48.75C105 23.8972 84.8528 3.75 60 3.75C35.1472 3.75 15 23.8972 15 48.75C15 73.6028 35.1472 93.75 60 93.75Z"
     clip-rule="evenodd"
     fill-rule="evenodd" />
  <circle
     style="fill:#BD904D;stroke:none"
     id="circle6"
     fill="#BD904D"
     r="4.21875"
     cy="16.4062"
     cx="14.5312" />
  <circle
     style="fill:#BD904D;stroke:none"
     id="circle8"
     fill="#BD904D"
     r="4.21875"
     cy="16.4062"
     cx="105.469" />
  <circle
     style="fill:#BD904D;stroke:none"
     id="circle10"
     fill="#BD904D"
     r="2.8125"
     cy="2.8125"
     cx="30" />
  <circle
     style="fill:#BD904D;stroke:none"
     id="circle12"
     fill="#BD904D"
     r="2.8125"
     cy="2.8125"
     cx="90" />
  <circle
     style="fill:#BD904D;stroke:none"
     id="circle14"
     fill="#BD904D"
     r="3.75"
     cy="8.4375"
     cx="22.5" />
  <circle
     style="fill:#BD904D;stroke:none"
     id="circle16"
     fill="#BD904D"
     r="3.75"
     cy="8.4375"
     cx="97.5" />
</svg>
