<?xml version="1.0" encoding="UTF-8" standalone="no"?>
<svg
  xmlns:dc="http://purl.org/dc/elements/1.1/"
  xmlns:cc="http://creativecommons.org/ns#"
  xmlns:rdf="http://www.w3.org/1999/02/22-rdf-syntax-ns#"
  xmlns:sodipodi="http://sodipodi.sourceforge.net/DTD/sodipodi-0.dtd"
  xmlns:inkscape="http://www.inkscape.org/namespaces/inkscape"
  xmlns="http://www.w3.org/2000/svg"
  width="84"
  height="84"
  viewBox="0 0 84 84"
  fill="none"
  version="1.1"
  id="svg8"
  sodipodi:docname="reject.svg"
  inkscape:version="0.92.4 5da689c313, 2019-01-14">
  <metadata
    id="metadata14">
    <rdf:RDF>
      <cc:Work
        rdf:about="">
        <dc:format>image/svg+xml</dc:format>
        <dc:type
          rdf:resource="http://purl.org/dc/dcmitype/StillImage"/>
      </cc:Work>
    </rdf:RDF>
  </metadata>
  <defs
    id="defs12"/>
  <sodipodi:namedview
    pagecolor="#ffffff"
    bordercolor="#666666"
    borderopacity="1"
    objecttolerance="10"
    gridtolerance="10"
    guidetolerance="10"
    inkscape:pageopacity="0"
    inkscape:pageshadow="2"
    inkscape:window-width="914"
    inkscape:window-height="489"
    id="namedview10"
    showgrid="false"
    inkscape:zoom="5.6190476"
    inkscape:cx="-10.808333"
    inkscape:cy="49.42256"
    inkscape:window-x="0"
    inkscape:window-y="28"
    inkscape:window-maximized="0"
    inkscape:current-layer="svg8"/>
  <rect
    width="84"
    height="84"
    rx="42"
    fill="#F7BF5D"
    id="rect2"
    style="fill:#000000"/>
  <circle
    cx="42"
    cy="42"
    r="39"
    fill="#F7BF5D"
    stroke="white"
    stroke-width="2"
    id="circle4"
    style="fill:#000000"/>
  <path
    d="M42.5 16C27.8654 16 16 27.8654 16 42.5C16 57.1346 27.8654 69 42.5 69C57.1346 69 69 57.1346 69 42.5C69 27.8654 57.1346 16 42.5 16ZM51.6668 55.6241L42.5177 46.5655L33.426 55.75L29.3781 51.7021L38.4411 42.5221L29.25 33.426L33.2979 29.3781L42.4735 38.4367L51.5409 29.25L55.6241 33.3332L46.57 42.4779L55.75 51.5409L51.6668 55.6241Z"
    fill="white"
    id="path6"/>
</svg>
