<?xml version="1.0" encoding="UTF-8" standalone="no"?>
<svg
  xmlns:dc="http://purl.org/dc/elements/1.1/"
  xmlns:cc="http://creativecommons.org/ns#"
  xmlns:rdf="http://www.w3.org/1999/02/22-rdf-syntax-ns#"
  xmlns="http://www.w3.org/2000/svg"
  id="svg8"
  version="1.1"
  viewBox="0 0 30 30"
  height="30"
  width="30">
  <metadata
    id="metadata14">
    <rdf:RDF>
      <cc:Work
        rdf:about="">
        <dc:format>image/svg+xml</dc:format>
        <dc:type
          rdf:resource="http://purl.org/dc/dcmitype/StillImage"/>
        <dc:title></dc:title>
      </cc:Work>
    </rdf:RDF>
  </metadata>
  <defs
    id="defs12"/>
  <rect
    id="rect2"
    rx="15"
    height="30"
    width="30"/>
  <circle
    id="circle4"
    stroke-width="2"
    stroke="white"
    r="12"
    cy="15"
    cx="15"/>
  <path
    id="path6"
    fill="white"
    d="M18.8038 12.4494C19.385 11.735 19.7059 10.8387 19.7059 9.92687V8H10V9.92687C10 10.8387 10.3203 11.7344 10.902 12.4488L12.7747 14.7488C13.118 15.1719 13.1204 15.7644 12.7801 16.19L10.8814 18.5613C10.313 19.2713 10 20.1581 10 21.0581V23H19.7059V21.0581C19.7059 20.1581 19.3923 19.2719 18.8245 18.5619L16.9258 16.1906C16.5848 15.765 16.5873 15.1725 16.9312 14.7494L18.8038 12.4494ZM18.4926 9.87438C18.4926 10.5625 18.2724 11.1556 17.8739 11.6456L17.2806 12.375H12.4253L11.832 11.6456C11.4316 11.155 11.2132 10.5606 11.2132 9.87438H18.4926V9.87438ZM17.8885 19.3569C18.284 19.8512 18.4926 20.435 18.4926 21.125H17.849C16.6728 19.875 14.8529 19.875 14.8529 19.875C14.8529 19.875 13.0331 19.875 11.8569 21.125H11.2132C11.2132 20.435 11.4219 19.8506 11.8174 19.3569L13.7155 16.9863C13.923 16.7269 14.0619 16.4325 14.1468 16.1256H14.2463V16.7506H15.4596V16.1256H15.5584C15.644 16.4325 15.7823 16.7269 15.9897 16.9856L17.8885 19.3569ZM14.2463 18.625H15.4596V19.25H14.2463V18.625ZM14.2463 17.375H15.4596V18H14.2463V17.375Z"/>
</svg>
