<svg width="30" height="30" viewBox="0 0 30 30" xmlns="http://www.w3.org/2000/svg">
  <rect width="30" height="30" rx="15"/>
  <circle cx="15" cy="15" r="12" stroke="white" stroke-width="2"/>
  <path
    d="M15 8C11.1342 8 8 11.1342 8 15C8 18.8657 11.1342 22 15 22C18.8657 22 22 18.8657 22 15C22 11.1342 18.8657 8 15 8ZM17.4214 18.4668L15.0047 16.0739L12.6031 18.5L11.5338 17.4307L13.9278 15.0058L11.5 12.6031L12.5692 11.5338L14.993 13.9267L17.3882 11.5L18.4668 12.5786L16.0751 14.9942L18.5 17.3882L17.4214 18.4668Z"
    fill="white"/>
</svg>
