<?xml version="1.0" encoding="UTF-8" standalone="no"?>
<svg
  xmlns:dc="http://purl.org/dc/elements/1.1/"
  xmlns:cc="http://creativecommons.org/ns#"
  xmlns:rdf="http://www.w3.org/1999/02/22-rdf-syntax-ns#"
  xmlns="http://www.w3.org/2000/svg"
  style="fill:none"
  id="svg8"
  version="1.1"
  viewBox="0 0 24 24"
  height="24"
  width="24">
  <metadata
    id="metadata14">
    <rdf:RDF>
      <cc:Work
        rdf:about="">
        <dc:format>image/svg+xml</dc:format>
        <dc:type
          rdf:resource="http://purl.org/dc/dcmitype/StillImage"/>
        <dc:title></dc:title>
      </cc:Work>
    </rdf:RDF>
  </metadata>
  <defs
    id="defs12"/>
  <path
    id="path2"
    d="m 11.999932,1.4127553 c -0.584087,9e-7 -1.167739,0.2877402 -1.501512,0.8639071 L 0.23486952,19.993771 c -0.66752521,1.152321 0.16734,2.593474 1.50239038,2.593474 H 22.263482 c 1.335047,0 2.169057,-1.441153 1.501511,-2.593474 L 13.502322,2.2766624 c -0.333773,-0.576166 -0.918305,-0.863908 -1.50239,-0.8639071 z m -0.04483,7.1048926 c 0.586526,0 1.058441,0.4703423 1.058441,1.0549129 v 5.0651602 c 0,0.58457 -0.471915,1.054913 -1.058441,1.054913 -0.586527,0 -1.059322,-0.470343 -1.059322,-1.054913 V 9.5725608 c 0,-0.5845706 0.472795,-1.0549129 1.059322,-1.0549129 z m 0,8.4419331 c 0.586526,0 1.058441,0.470343 1.058441,1.054913 0,0.584571 -0.471915,1.054914 -1.058441,1.054914 -0.586527,0 -1.059322,-0.470343 -1.059322,-1.054914 0,-0.58457 0.472795,-1.054913 1.059322,-1.054913 z"
    style="fill:#000000;stroke-width:0.44935071"/>
</svg>
